# xmcd
#
# Track frame offsets:
#	150
#	28607
#	59478
#	86847
#	117089
#	143034
#	161963
#	179930
#	208210
#	240769
#	261850
#	291363
#	320689
#
# Disc length: 4720 seconds
# Revision: 0
# Processed by: cddbd v1.5.2PL0 Copyright (c) Steve Scherf et al.
# Submitted via: dBpowerAMP V12.0
#
DISCID=cb126e0d
DTITLE=Lyndsay Faye - Der Teufel von New York 3
DYEAR=1900
DGENRE=
TTITLE0=27
TTITLE1=28
TTITLE2=29
TTITLE3=30
TTITLE4=31
TTITLE5=32
TTITLE6=33
TTITLE7=34
TTITLE8=35
TTITLE9=36
TTITLE10=37
TTITLE11=38
TTITLE12=39
EXTD=
EXTT0=
EXTT1=
EXTT2=
EXTT3=
EXTT4=
EXTT5=
EXTT6=
EXTT7=
EXTT8=
EXTT9=
EXTT10=
EXTT11=
EXTT12=
PLAYORDER=
